<svg xmlns="http://www.w3.org/2000/svg" width="24" height="24" viewBox="0 0 24 24" fill="none" stroke="#fff" stroke-width="1.75" stroke-linecap="round" stroke-linejoin="round"><path d="M10.9 3.8 18.4 11.3 11.6 18.1a1.6 1.6 0 0 1-2.3 0L4 12.8a1.6 1.6 0 0 1 0-2.3z"/><path d="M4.2 11.6h14.2l-6.8 6.5a1.6 1.6 0 0 1-2.3 0z" fill="#fff" fill-opacity=".32" stroke="none"/><path d="M7.4 3l3.2 3.2"/><path d="M20.4 15.2c.9 1.4 1.7 2.5 1.7 3.4a1.7 1.7 0 0 1-3.4 0c0-.9.8-2 1.7-3.4z" fill="#fff" stroke="none"/></svg>
