<svg xmlns="http://www.w3.org/2000/svg" width="64" height="64" viewBox="0 0 64 64"><defs><linearGradient id="t" x1="0" y1="0" x2="0" y2="1"><stop offset="0" stop-color="#7cc3b9"/><stop offset="1" stop-color="#3f8580"/></linearGradient></defs><g transform="translate(0 2.5)" fill="#1a0f06" opacity=".22"><path d="M23 10l-9 4-9 11 8 7 5-4v26h28V28l5 4 8-7-9-11-9-4q-9 8-18 0z"/></g><path d="M23 10l-9 4-9 11 8 7 5-4v26h28V28l5 4 8-7-9-11-9-4q-9 8-18 0z" fill="url(#t)" stroke="#3b2414" stroke-width="3" stroke-linejoin="round" stroke-linecap="round"/><path d="M23 10q9 8 18 0" fill="none" stroke="#3b2414" stroke-width="3" stroke-linejoin="round" stroke-linecap="round"/><path d="M32 18v12" stroke="#3b2414" stroke-width="2.5" stroke-linecap="round"/><circle cx="32" cy="36" r="2" fill="#3b2414"/><circle cx="32" cy="44" r="2" fill="#3b2414"/><path d="M14 21l5-4" stroke="#fff" stroke-width="2.5" opacity=".5" stroke-linecap="round"/></svg>